<svg width="21" height="21" viewBox="0 0 21 21" fill="none" xmlns="http://www.w3.org/2000/svg">
<path d="M10.5 3.5C14.3587 3.5 17.5 6.64125 17.5 10.5C17.5 14.3587 14.3587 17.5 10.5 17.5C9.4675 17.5 8.4525 17.2725 7.49875 16.8175C7.2625 16.7037 7.00875 16.6513 6.74625 16.6513C6.58 16.6513 6.41375 16.6775 6.25625 16.7213L3.45625 17.5437L4.27875 14.7438C4.40125 14.3325 4.36625 13.8863 4.1825 13.5013C3.7275 12.5475 3.5 11.5325 3.5 10.5C3.5 6.64125 6.64125 3.5 10.5 3.5ZM10.5 1.75C5.67 1.75 1.75 5.67 1.75 10.5C1.75 11.8475 2.065 13.1075 2.59875 14.2538L0.875 20.125L6.74625 18.4013C7.8925 18.935 9.1525 19.25 10.5 19.25C15.33 19.25 19.25 15.33 19.25 10.5C19.25 5.67 15.33 1.75 10.5 1.75Z" fill="#212121"/>
</svg>
