<svg width="24" height="24" viewBox="0 0 24 24" fill="none" xmlns="http://www.w3.org/2000/svg">
<path d="M1.05813 12.3603L7.52523 16.4769L11.6405 22.944C12.0627 23.6073 12.7875 23.9999 13.5628 23.9999C13.6281 23.9999 13.6921 23.9974 13.7585 23.9913C14.6077 23.9186 15.3399 23.3858 15.6697 22.6006L23.8204 3.1673C24.1809 2.30831 23.989 1.3287 23.3318 0.6703C22.6734 0.0118984 21.6938 -0.181315 20.8348 0.179268L1.39902 8.33114C0.612628 8.66096 0.0797531 9.3932 0.008375 10.2424C-0.0642338 11.0915 0.339422 11.9037 1.05813 12.3603ZM2.1128 10.0331L21.5473 1.8825C21.6113 1.85542 21.6704 1.84435 21.7233 1.84435C21.8735 1.84435 21.9793 1.92926 22.0248 1.97603C22.0876 2.03756 22.2205 2.20862 22.1184 2.45352L13.9677 21.8881C13.8754 22.1084 13.6822 22.1465 13.6022 22.1539C13.5222 22.1588 13.3241 22.1539 13.1973 21.9533L9.36876 15.9378L14.4674 10.8392C14.828 10.4786 14.828 9.89408 14.4674 9.53349C14.1068 9.17291 13.5222 9.17291 13.1616 9.53349L8.06303 14.6321L2.04757 10.8035C1.85436 10.6805 1.83836 10.4971 1.84698 10.3986C1.85436 10.3199 1.89251 10.1254 2.1128 10.0331Z" fill="#212121"/>
</svg>
